<?xml version="1.0" standalone="no"?>
<!DOCTYPE svg PUBLIC "-//W3C//DTD SVG 20010904//EN"
 "http://www.w3.org/TR/2001/REC-SVG-20010904/DTD/svg10.dtd">
<svg version="1.0" xmlns="http://www.w3.org/2000/svg"
 width="146.000000pt" height="146.000000pt" viewBox="0 0 146.000000 146.000000"
 preserveAspectRatio="xMidYMid meet">
<metadata>
Created by potrace 1.11, written by Peter Selinger 2001-2013
</metadata>
<g transform="translate(0.000000,146.000000) scale(0.100000,-0.100000)"
fill="#000000" stroke="none">
<path d="M10 1110 l0 -350 350 0 350 0 0 350 0 350 -350 0 -350 0 0 -350z"/>
<path d="M790 730 l0 -730 335 0 335 0 0 730 0 730 -335 0 -335 0 0 -730z"/>
<path d="M10 350 l0 -350 350 0 350 0 0 350 0 350 -350 0 -350 0 0 -350z"/>
</g>
</svg>
